<?xml version="1.0" encoding="UTF-8"?>
<svg id="Layer_1" xmlns="http://www.w3.org/2000/svg" version="1.1" viewBox="0 0 792 372">
  <!-- Generator: Adobe Illustrator 29.8.2, SVG Export Plug-In . SVG Version: 2.1.1 Build 3)  -->
  <defs>
    <style>
      .st0 {
        fill: #010101;
      }

      .st1 {
        fill: #0082ca;
      }

      .st2 {
        fill: #001689;
      }

      .st3 {
        fill: #b3b3b3;
      }
    </style>
  </defs>
  <g>
    <polygon class="st1" points="478.81 121.83 523.73 23.22 589.91 165.85 655.83 22.86 741.46 22.86 589.72 352.39 478.81 121.83"/>
    <polygon class="st2" points="267.68 36.92 220.22 135.21 324.7 352.39 477.06 22.5 390.49 22.5 326.48 163.83 267.68 36.92"/>
  </g>
  <polyline class="st0" points="56.27 22.63 149.09 22.63 195.8 123.54 102.98 123.54 56.27 22.63"/>
  <polygon class="st2" points="211.45 353.63 256.55 251.01 204.06 137.59 110.96 137.59 211.45 353.63"/>
  <path class="st3" d="M677.46,190.31c9.07.77,18.08,1.99,27.12,3.46,9.02,1.59,18.01,3.51,26.96,6.58,4.47,1.59,8.96,3.35,13.39,6.21,2.2,1.46,4.45,3.15,6.48,5.73,1,1.31,1.92,2.88,2.57,4.73.62,1.89.84,4.02.6,6.1-.55,4.19-2.65,7.28-4.63,9.57-2.04,2.31-4.19,4.08-6.34,5.62-4.31,3.05-8.68,5.33-13.06,7.4-8.78,4.06-17.67,7.05-26.58,9.82-8.91,2.73-17.89,4.99-26.86,7.11-8.98,2.14-17.99,3.94-27.02,5.64-9.03,1.68-18.06,3.28-27.11,4.63-18.1,2.77-36.24,5.1-54.41,6.96-18.16,1.96-36.35,3.39-54.55,4.63-18.2,1.25-36.41,2.01-54.62,2.69-18.22.58-36.44.84-54.65.96-18.22-.01-36.44-.23-54.65-.7-18.21-.59-36.43-1.3-54.63-2.42-18.2-1.18-36.39-2.46-54.56-4.32-9.08-.91-18.16-1.86-27.24-2.94-9.07-1.12-18.13-2.32-27.19-3.62-9.06-1.27-18.1-2.77-27.12-4.35-9.03-1.59-18.05-3.28-27.04-5.26-17.98-3.92-35.9-8.45-53.55-15.11-4.4-1.71-8.79-3.57-13.14-5.77-4.34-2.25-8.69-4.62-12.85-8.23-2.06-1.82-4.15-3.92-5.81-6.93-.84-1.46-1.47-3.3-1.78-5.22-.23-1.97-.1-4.01.49-5.84,1.21-3.64,3.41-6.02,5.51-7.84,2.14-1.83,4.34-3.14,6.54-4.31,8.82-4.5,17.78-6.73,26.75-8.73,9-1.84,17.99-3.26,27.04-4.21-8.64,2.83-17.27,5.62-25.6,9.01-4.17,1.66-8.29,3.39-12.25,5.34-3.94,1.95-7.8,4.02-11.11,6.46-1.64,1.21-3.17,2.5-4.29,3.82-1.13,1.31-1.8,2.63-1.83,3.39,0,.72.17,1.03.88,1.95.69.86,1.94,1.93,3.43,2.89,3.01,1.95,6.84,3.62,10.75,5.04,3.94,1.43,8.08,2.64,12.28,3.71,8.41,2.16,17.07,3.89,25.8,5.33,8.73,1.46,17.54,2.74,26.39,3.81,17.69,2.19,35.52,3.81,53.38,5.19,35.73,2.67,71.61,4.36,107.52,5.39,17.96.49,35.92.96,53.89,1.1,17.97.29,35.94.38,53.91.29,17.97.04,35.94-.17,53.91-.5,17.97-.22,35.92-.79,53.87-1.35,35.89-1.22,71.76-3.06,107.43-6.06,17.83-1.52,35.62-3.37,53.23-5.81,8.81-1.21,17.55-2.67,26.19-4.34,8.62-1.69,17.18-3.68,25.21-6.32,3.99-1.32,7.88-2.84,11.22-4.64,1.67-.89,3.13-1.89,4.24-2.84,1.11-.96,1.68-1.78,1.87-2.1.08-.17.17-.32.18-.62-.04-.31-.15-.77-.44-1.32-.59-1.12-1.8-2.45-3.22-3.67-2.89-2.48-6.6-4.71-10.42-6.71-7.74-3.95-16.13-7.23-24.61-10.21-8.48-3.04-17.17-5.62-25.87-8.27Z"/>
</svg>