<?xml version="1.0" encoding="UTF-8"?>
<svg id="Layer_1" xmlns="http://www.w3.org/2000/svg" version="1.1" viewBox="0 0 792 553">
  <!-- Generator: Adobe Illustrator 29.8.2, SVG Export Plug-In . SVG Version: 2.1.1 Build 3)  -->
  <defs>
    <style>
      .st0 {
        fill: #010101;
      }

      .st1 {
        fill: #414042;
      }

      .st2 {
        fill: #0082ca;
      }

      .st3 {
        fill: #001689;
      }

      .st4 {
        fill: #b3b3b3;
      }
    </style>
  </defs>
  <g>
    <g>
      <polygon class="st2" points="478.81 129.83 523.73 31.22 589.91 173.85 655.83 30.86 741.46 30.86 589.72 360.39 478.81 129.83"/>
      <polygon class="st3" points="267.68 44.92 220.22 143.21 324.7 360.39 477.06 30.5 390.49 30.5 326.48 171.83 267.68 44.92"/>
    </g>
    <polyline class="st0" points="56.27 30.63 149.09 30.63 195.8 131.54 102.98 131.54 56.27 30.63"/>
    <polygon class="st3" points="211.45 361.63 256.55 259.01 204.06 145.59 110.96 145.59 211.45 361.63"/>
    <path class="st4" d="M677.46,198.31c9.07.77,18.08,1.99,27.12,3.46,9.02,1.59,18.01,3.51,26.96,6.58,4.47,1.59,8.96,3.35,13.39,6.21,2.2,1.46,4.45,3.15,6.48,5.73,1,1.31,1.92,2.88,2.57,4.73.62,1.89.84,4.02.6,6.1-.55,4.19-2.65,7.28-4.63,9.57-2.04,2.31-4.19,4.08-6.34,5.62-4.31,3.05-8.68,5.33-13.06,7.4-8.78,4.06-17.67,7.05-26.58,9.82-8.91,2.73-17.89,4.99-26.86,7.11-8.98,2.14-17.99,3.94-27.02,5.64-9.03,1.68-18.06,3.28-27.11,4.63-18.1,2.77-36.24,5.1-54.41,6.96-18.16,1.96-36.35,3.39-54.55,4.63-18.2,1.25-36.41,2.01-54.62,2.69-18.22.58-36.44.84-54.65.96-18.22-.01-36.44-.23-54.65-.7-18.21-.59-36.43-1.3-54.63-2.42-18.2-1.18-36.39-2.46-54.56-4.32-9.08-.91-18.16-1.86-27.24-2.94-9.07-1.12-18.13-2.32-27.19-3.62-9.06-1.27-18.1-2.77-27.12-4.35-9.03-1.59-18.05-3.28-27.04-5.26-17.98-3.92-35.9-8.45-53.55-15.11-4.4-1.71-8.79-3.57-13.14-5.77-4.34-2.25-8.69-4.62-12.85-8.23-2.06-1.82-4.15-3.92-5.81-6.93-.84-1.46-1.47-3.3-1.78-5.22-.23-1.97-.1-4.01.49-5.84,1.21-3.64,3.41-6.02,5.51-7.84,2.14-1.83,4.34-3.14,6.54-4.31,8.82-4.5,17.78-6.73,26.75-8.73,9-1.84,17.99-3.26,27.04-4.21-8.64,2.83-17.27,5.62-25.6,9.01-4.17,1.66-8.29,3.39-12.25,5.34-3.94,1.95-7.8,4.02-11.11,6.46-1.64,1.21-3.17,2.5-4.29,3.82-1.13,1.31-1.8,2.63-1.83,3.39,0,.72.17,1.03.88,1.95.69.86,1.94,1.93,3.43,2.89,3.01,1.95,6.84,3.62,10.75,5.04,3.94,1.43,8.08,2.64,12.28,3.71,8.41,2.16,17.07,3.89,25.8,5.33,8.73,1.46,17.54,2.74,26.39,3.81,17.69,2.19,35.52,3.81,53.38,5.19,35.73,2.67,71.61,4.36,107.52,5.39,17.96.49,35.92.96,53.89,1.1,17.97.29,35.94.38,53.91.29,17.97.04,35.94-.17,53.91-.5,17.97-.22,35.92-.79,53.87-1.35,35.89-1.22,71.76-3.06,107.43-6.06,17.83-1.52,35.62-3.37,53.23-5.81,8.81-1.21,17.55-2.67,26.19-4.34,8.62-1.69,17.18-3.68,25.21-6.32,3.99-1.32,7.88-2.84,11.22-4.64,1.67-.89,3.13-1.89,4.24-2.84,1.11-.96,1.68-1.78,1.87-2.1.08-.17.17-.32.18-.62-.04-.31-.15-.77-.44-1.32-.59-1.12-1.8-2.45-3.22-3.67-2.89-2.48-6.6-4.71-10.42-6.71-7.74-3.95-16.13-7.23-24.61-10.21-8.48-3.04-17.17-5.62-25.87-8.27Z"/>
  </g>
  <g>
    <path d="M158.61,459.09h21.01l7.56,40.07,11.07-40.07h20.93l11.1,40.02,7.57-40.02h20.9l-15.78,71.58h-21.69l-12.55-45.07-12.51,45.07h-21.69l-15.92-71.58Z"/>
    <path d="M309.99,518.86h-25.11l-3.49,11.82h-22.58l26.9-71.58h24.13l26.9,71.58h-23.16l-3.59-11.82ZM305.41,503.38l-7.9-25.73-7.82,25.73h15.72Z"/>
    <path d="M339.91,506.99l21.04-1.32c.46,3.42,1.38,6.02,2.78,7.81,2.28,2.9,5.53,4.35,9.77,4.35,3.16,0,5.59-.74,7.3-2.22s2.56-3.2,2.56-5.15-.81-3.52-2.44-4.98c-1.63-1.46-5.4-2.85-11.33-4.15-9.7-2.18-16.62-5.08-20.75-8.69-4.17-3.61-6.25-8.22-6.25-13.82,0-3.68,1.07-7.15,3.2-10.42,2.13-3.27,5.34-5.84,9.62-7.71s10.15-2.81,17.6-2.81c9.15,0,16.12,1.7,20.92,5.1,4.8,3.4,7.66,8.81,8.57,16.24l-20.85,1.22c-.55-3.22-1.72-5.57-3.49-7.03s-4.22-2.2-7.35-2.2c-2.57,0-4.51.55-5.81,1.64s-1.95,2.42-1.95,3.98c0,1.14.54,2.17,1.61,3.08,1.04.94,3.52,1.82,7.42,2.64,9.67,2.08,16.59,4.19,20.78,6.32,4.18,2.13,7.23,4.78,9.13,7.93,1.9,3.16,2.86,6.69,2.86,10.6,0,4.59-1.27,8.82-3.81,12.7-2.54,3.87-6.09,6.81-10.64,8.81-4.56,2-10.3,3-17.24,3-12.17,0-20.61-2.34-25.29-7.03s-7.34-10.66-7.96-17.89Z"/>
    <path d="M408.95,459.09h23.12l16.11,51.51,15.9-51.51h22.45l-26.58,71.58h-23.97l-27.03-71.58Z"/>
    <path d="M493.72,459.09h59.28v15.28h-37.11v11.38h34.42v14.6h-34.42v14.11h38.18v16.21h-60.35v-71.58Z"/>
    <path d="M565.99,459.09h22.12v53.96h34.52v17.63h-56.64v-71.59Z"/>
    <path d="M622.58,459.09h67.24v17.68h-22.56v53.91h-22.12v-53.91h-22.56v-17.68Z"/>
  </g>
  <g>
    <path class="st1" d="M254.72,404.21h11.08v35.79h-11.08v-35.79h0Z"/>
    <path class="st1" d="M273.81,404.21h10.33l13.48,19.8v-19.8h10.42v35.79h-10.42l-13.4-19.65v19.65h-10.4v-35.79h-.01Z"/>
    <path class="st1" d="M315.53,404.21h16.43c3.24,0,5.85.44,7.85,1.32,1.99.88,3.64,2.14,4.94,3.78,1.3,1.64,2.25,3.56,2.83,5.74.59,2.18.88,4.49.88,6.93,0,3.83-.44,6.79-1.31,8.9s-2.08,3.87-3.63,5.3c-1.55,1.42-3.21,2.37-4.98,2.84-2.43.65-4.62.98-6.59.98h-16.43v-35.79h.01ZM326.59,412.32v19.56h2.71c2.31,0,3.96-.26,4.93-.77s1.74-1.41,2.29-2.69c.55-1.28.83-3.35.83-6.21,0-3.79-.62-6.39-1.86-7.79s-3.29-2.1-6.15-2.1h-2.75Z"/>
    <path class="st1" d="M377.57,404.21h11.04v21.32c0,2.11-.33,4.11-.99,5.99s-1.69,3.52-3.1,4.93-2.89,2.4-4.43,2.96c-2.15.8-4.73,1.2-7.74,1.2-1.74,0-3.64-.12-5.7-.37-2.06-.24-3.78-.73-5.16-1.45s-2.65-1.75-3.8-3.09-1.93-2.71-2.36-4.12c-.68-2.28-1.03-4.29-1.03-6.05v-21.32h11.04v21.83c0,1.95.54,3.48,1.62,4.57,1.08,1.1,2.58,1.65,4.5,1.65s3.4-.54,4.48-1.62c1.08-1.08,1.62-2.61,1.62-4.6v-21.83h0Z"/>
    <path class="st1" d="M394,428.16l10.52-.66c.23,1.71.69,3.01,1.39,3.91,1.14,1.45,2.77,2.17,4.88,2.17,1.58,0,2.8-.37,3.65-1.11.86-.74,1.28-1.6,1.28-2.58s-.41-1.76-1.22-2.49c-.81-.73-2.7-1.42-5.66-2.08-4.85-1.09-8.31-2.54-10.38-4.35-2.08-1.81-3.12-4.11-3.12-6.91,0-1.84.53-3.58,1.6-5.21,1.07-1.64,2.67-2.92,4.81-3.86,2.14-.94,5.07-1.4,8.8-1.4,4.57,0,8.06.85,10.46,2.55,2.4,1.7,3.83,4.41,4.28,8.12l-10.42.61c-.28-1.61-.86-2.78-1.75-3.52-.89-.73-2.11-1.1-3.67-1.1-1.29,0-2.25.27-2.91.82-.65.55-.98,1.21-.98,1.99,0,.57.27,1.08.81,1.54.52.47,1.76.91,3.71,1.32,4.83,1.04,8.3,2.1,10.39,3.16,2.09,1.07,3.61,2.39,4.56,3.97s1.43,3.34,1.43,5.3c0,2.29-.63,4.41-1.9,6.35s-3.04,3.41-5.32,4.41-5.15,1.5-8.62,1.5c-6.09,0-10.3-1.17-12.65-3.52-2.33-2.34-3.66-5.32-3.97-8.93Z"/>
    <path class="st1" d="M429.52,404.21h33.62v8.84h-11.28v26.95h-11.06v-26.95h-11.28v-8.84Z"/>
    <path class="st1" d="M468.29,440v-35.79h18.43c3.42,0,6.03.29,7.84.88s3.26,1.67,4.37,3.26,1.66,3.52,1.66,5.8c0,1.99-.42,3.7-1.27,5.14s-2.01,2.61-3.49,3.5c-.94.57-2.24,1.04-3.88,1.42,1.32.44,2.28.88,2.88,1.32.41.29,1,.92,1.77,1.88s1.29,1.7,1.55,2.22l5.35,10.37h-12.5l-5.91-10.94c-.75-1.42-1.42-2.34-2-2.76-.8-.55-1.7-.83-2.71-.83h-.98v14.53h-11.11ZM479.4,418.71h4.66c.5,0,1.48-.16,2.93-.49.73-.15,1.33-.52,1.79-1.12.46-.6.7-1.29.7-2.08,0-1.16-.37-2.04-1.1-2.66s-2.11-.93-4.13-.93h-4.86v7.28h0Z"/>
    <path class="st1" d="M507.48,404.21h11.08v35.79h-11.08v-35.79Z"/>
    <path class="st1" d="M548.5,434.09h-12.56l-1.74,5.91h-11.29l13.45-35.79h12.06l13.45,35.79h-11.58l-1.79-5.91ZM546.21,426.35l-3.95-12.87-3.91,12.87h7.86Z"/>
    <path class="st1" d="M563.46,428.16l10.52-.66c.23,1.71.69,3.01,1.39,3.91,1.14,1.45,2.77,2.17,4.88,2.17,1.58,0,2.8-.37,3.65-1.11.86-.74,1.28-1.6,1.28-2.58s-.41-1.76-1.22-2.49c-.81-.73-2.7-1.42-5.66-2.08-4.85-1.09-8.31-2.54-10.38-4.35-2.08-1.81-3.12-4.11-3.12-6.91,0-1.84.53-3.58,1.6-5.21,1.07-1.64,2.67-2.92,4.81-3.86,2.14-.94,5.07-1.4,8.8-1.4,4.57,0,8.06.85,10.46,2.55,2.4,1.7,3.83,4.41,4.28,8.12l-10.42.61c-.28-1.61-.86-2.78-1.75-3.52-.89-.73-2.11-1.1-3.67-1.1-1.29,0-2.25.27-2.91.82-.65.55-.98,1.21-.98,1.99,0,.57.27,1.08.81,1.54.52.47,1.76.91,3.71,1.32,4.83,1.04,8.3,2.1,10.39,3.16,2.09,1.07,3.61,2.39,4.56,3.97s1.43,3.34,1.43,5.3c0,2.29-.63,4.41-1.9,6.35s-3.04,3.41-5.32,4.41-5.15,1.5-8.62,1.5c-6.09,0-10.3-1.17-12.65-3.52s-3.66-5.32-3.97-8.93Z"/>
  </g>
</svg>